STARTFONT 2.1
COMMENT
COMMENT Converted from OpenType font "manrope-medium.otf" by "otf2bdf 3.0".
COMMENT
FONT -FreeType-Manrope Medium-Medium-R-Normal--22-160-100-100-P-102-ISO10646-1
SIZE 16 100 100
FONTBOUNDINGBOX 21 27 0 -5
STARTPROPERTIES 19
FOUNDRY "FreeType"
FAMILY_NAME "Manrope Medium"
WEIGHT_NAME "Medium"
SLANT "R"
SETWIDTH_NAME "Normal"
ADD_STYLE_NAME ""
PIXEL_SIZE 22
POINT_SIZE 160
RESOLUTION_X 100
RESOLUTION_Y 100
SPACING "P"
AVERAGE_WIDTH 102
CHARSET_REGISTRY "ISO10646"
CHARSET_ENCODING "1"
FONT_ASCENT 23
FONT_DESCENT 6
COPYRIGHT "Copyright 2019-2021 The Manrope Project Authors (https://github.com/sharanda/manrope)"
_OTF_FONTFILE "manrope-medium.otf"
_OTF_PSNAME "Manrope-Medium"
ENDPROPERTIES
CHARS 191
STARTCHAR 0020
ENCODING 32
SWIDTH 180 0
DWIDTH 4 0
BBX 0 0 0 0
BITMAP
ENDCHAR
STARTCHAR 0021
ENCODING 33
SWIDTH 315 0
DWIDTH 7 0
BBX 2 16 3 0
BITMAP
C0
C0
C0
C0
C0
C0
C0
C0
C0
C0
C0
C0
00
00
C0
C0
ENDCHAR
STARTCHAR 0022
ENCODING 34
SWIDTH 405 0
DWIDTH 9 0
BBX 6 4 1 12
BITMAP
CC
CC
CC
CC
ENDCHAR
STARTCHAR 0023
ENCODING 35
SWIDTH 945 0
DWIDTH 21 0
BBX 18 16 1 0
BITMAP
00C600
018600
018C00
018C00
3FFFC0
3FFFC0
031800
031800
061800
7FFF80
FFFF00
063000
0C3000
0C6000
0C6000
0C6000
ENDCHAR
STARTCHAR 0024
ENCODING 36
SWIDTH 585 0
DWIDTH 13 0
BBX 12 20 1 -2
BITMAP
0600
0600
1F00
7FC0
60E0
C060
C060
6000
7800
3F00
07C0
00E0
0070
C030
C060
6060
7FC0
1F80
0600
0600
ENDCHAR
STARTCHAR 0025
ENCODING 37
SWIDTH 900 0
DWIDTH 20 0
BBX 18 16 1 0
BITMAP
3C0100
7E0380
630700
C10E00
C31C00
633800
7E7000
1CE000
01CE00
039F80
073180
0E30C0
1C20C0
383180
701F80
200F00
ENDCHAR
STARTCHAR 0026
ENCODING 38
SWIDTH 675 0
DWIDTH 15 0
BBX 13 16 1 0
BITMAP
1F00
3FC0
70C0
6000
6000
6000
3000
3800
7C30
E730
C3B0
C1E0
C0E0
60F0
7FD8
1F88
ENDCHAR
STARTCHAR 0027
ENCODING 39
SWIDTH 225 0
DWIDTH 5 0
BBX 2 4 1 12
BITMAP
C0
C0
C0
C0
ENDCHAR
STARTCHAR 0028
ENCODING 40
SWIDTH 450 0
DWIDTH 10 0
BBX 6 23 3 -4
BITMAP
08
1C
18
30
30
60
60
40
C0
C0
C0
C0
C0
C0
C0
40
60
60
60
30
38
18
08
ENDCHAR
STARTCHAR 0029
ENCODING 41
SWIDTH 450 0
DWIDTH 10 0
BBX 6 23 1 -4
BITMAP
40
C0
60
70
30
10
18
18
18
08
0C
0C
0C
08
18
18
18
18
30
30
60
E0
40
ENDCHAR
STARTCHAR 002A
ENCODING 42
SWIDTH 450 0
DWIDTH 10 0
BBX 8 7 1 8
BITMAP
10
10
D6
FF
38
6C
6E
ENDCHAR
STARTCHAR 002B
ENCODING 43
SWIDTH 585 0
DWIDTH 13 0
BBX 10 10 1 3
BITMAP
0400
0400
0400
0400
FFC0
FFC0
0400
0400
0400
0400
ENDCHAR
STARTCHAR 002C
ENCODING 44
SWIDTH 270 0
DWIDTH 6 0
BBX 3 6 1 -3
BITMAP
E0
E0
E0
40
40
C0
ENDCHAR
STARTCHAR 002D
ENCODING 45
SWIDTH 405 0
DWIDTH 9 0
BBX 7 2 1 6
BITMAP
FE
FE
ENDCHAR
STARTCHAR 002E
ENCODING 46
SWIDTH 270 0
DWIDTH 6 0
BBX 2 2 2 0
BITMAP
C0
C0
ENDCHAR
STARTCHAR 002F
ENCODING 47
SWIDTH 405 0
DWIDTH 9 0
BBX 6 16 1 0
BITMAP
0C
0C
0C
0C
18
18
18
18
30
30
30
30
60
60
60
C0
ENDCHAR
STARTCHAR 0030
ENCODING 48
SWIDTH 630 0
DWIDTH 14 0
BBX 10 16 2 0
BITMAP
1E00
7F80
E1C0
C0C0
C0C0
C0C0
C0C0
C0C0
C0C0
C0C0
C0C0
C0C0
C0C0
E1C0
7F80
1E00
ENDCHAR
STARTCHAR 0031
ENCODING 49
SWIDTH 405 0
DWIDTH 9 0
BBX 5 16 1 0
BITMAP
18
78
F8
98
18
18
18
18
18
18
18
18
18
18
18
18
ENDCHAR
STARTCHAR 0032
ENCODING 50
SWIDTH 585 0
DWIDTH 13 0
BBX 11 16 1 0
BITMAP
1F00
3F80
71C0
E0C0
C060
0060
00E0
00C0
0180
0300
0E00
1C00
3800
7000
FFE0
FFE0
ENDCHAR
STARTCHAR 0033
ENCODING 51
SWIDTH 585 0
DWIDTH 13 0
BBX 10 16 1 0
BITMAP
7FC0
7FC0
0180
0300
0600
1C00
3F00
1F80
01C0
00C0
00C0
00C0
C0C0
E180
7F80
1E00
ENDCHAR
STARTCHAR 0034
ENCODING 52
SWIDTH 585 0
DWIDTH 13 0
BBX 11 16 1 0
BITMAP
0600
0600
0C00
0C00
1800
1800
3800
3180
7180
6180
E180
FFE0
FFE0
0180
0180
0180
ENDCHAR
STARTCHAR 0035
ENCODING 53
SWIDTH 585 0
DWIDTH 13 0
BBX 11 16 1 0
BITMAP
7FC0
7FC0
6000
6000
6000
6E00
7F80
61C0
00C0
0060
0060
0060
C0C0
61C0
3F80
1F00
ENDCHAR
STARTCHAR 0036
ENCODING 54
SWIDTH 630 0
DWIDTH 14 0
BBX 10 16 2 0
BITMAP
1F00
7F80
E180
C000
C000
C000
DF00
FF80
E1C0
C0C0
C0C0
C0C0
C0C0
E1C0
7F80
1E00
ENDCHAR
STARTCHAR 0037
ENCODING 55
SWIDTH 495 0
DWIDTH 11 0
BBX 9 16 1 0
BITMAP
FF80
FF80
0180
0380
0300
0300
0600
0600
0E00
0C00
0C00
1800
1800
3800
3000
3000
ENDCHAR
STARTCHAR 0038
ENCODING 56
SWIDTH 585 0
DWIDTH 13 0
BBX 11 16 1 0
BITMAP
1F00
3F80
70C0
60C0
60C0
60C0
3F80
3F80
71C0
60E0
C060
C060
60E0
60C0
3F80
1F00
ENDCHAR
STARTCHAR 0039
ENCODING 57
SWIDTH 630 0
DWIDTH 14 0
BBX 11 16 1 0
BITMAP
1F00
3FC0
70C0
6060
C060
C060
6060
70E0
3FE0
1F60
0060
0060
0060
30C0
3FC0
1F00
ENDCHAR
STARTCHAR 003A
ENCODING 58
SWIDTH 315 0
DWIDTH 7 0
BBX 3 8 2 2
BITMAP
E0
E0
00
00
00
00
E0
E0
ENDCHAR
STARTCHAR 003B
ENCODING 59
SWIDTH 315 0
DWIDTH 7 0
BBX 3 15 2 -3
BITMAP
E0
E0
00
00
00
00
00
00
00
E0
E0
E0
20
60
C0
ENDCHAR
STARTCHAR 003C
ENCODING 60
SWIDTH 630 0
DWIDTH 14 0
BBX 6 10 3 1
BITMAP
04
0C
18
30
60
E0
70
38
1C
0C
ENDCHAR
STARTCHAR 003D
ENCODING 61
SWIDTH 765 0
DWIDTH 17 0
BBX 11 6 3 5
BITMAP
FFE0
FFE0
0000
0000
FFE0
FFE0
ENDCHAR
STARTCHAR 003E
ENCODING 62
SWIDTH 630 0
DWIDTH 14 0
BBX 6 10 4 1
BITMAP
40
E0
70
18
0C
0C
18
30
60
C0
ENDCHAR
STARTCHAR 003F
ENCODING 63
SWIDTH 540 0
DWIDTH 12 0
BBX 10 16 1 0
BITMAP
1E00
7F80
6180
C0C0
00C0
01C0
0180
0700
0E00
0C00
0C00
0C00
0000
0000
0C00
0C00
ENDCHAR
STARTCHAR 0040
ENCODING 64
SWIDTH 900 0
DWIDTH 20 0
BBX 16 18 2 -3
BITMAP
01C0
0FF8
381C
7006
6006
C183
C7E3
C661
CC21
CC21
CC73
C7FF
C39E
6000
3000
3C10
0FF0
03C0
ENDCHAR
STARTCHAR 0041
ENCODING 65
SWIDTH 630 0
DWIDTH 14 0
BBX 13 16 1 0
BITMAP
0700
0F00
0F00
0D80
1980
1980
18C0
30C0
30C0
3060
7FE0
7FE0
6030
C030
C030
C018
ENDCHAR
STARTCHAR 0042
ENCODING 66
SWIDTH 630 0
DWIDTH 14 0
BBX 11 16 2 0
BITMAP
FF00
FF80
C0C0
C0C0
C0C0
C0C0
C1C0
FF80
FFC0
C0E0
C060
C060
C060
C0E0
FFC0
FF80
ENDCHAR
STARTCHAR 0043
ENCODING 67
SWIDTH 720 0
DWIDTH 16 0
BBX 14 16 1 0
BITMAP
0FC0
3FF0
7038
601C
C00C
C000
C000
C000
C000
C000
C000
C00C
601C
7038
3FF0
0FC0
ENDCHAR
STARTCHAR 0044
ENCODING 68
SWIDTH 675 0
DWIDTH 15 0
BBX 12 16 2 0
BITMAP
FF00
FFC0
C0E0
C060
C070
C030
C030
C030
C030
C030
C030
C070
C060
C0E0
FFC0
FF00
ENDCHAR
STARTCHAR 0045
ENCODING 69
SWIDTH 585 0
DWIDTH 13 0
BBX 10 16 2 0
BITMAP
FFC0
FFC0
C000
C000
C000
C000
C000
FF00
FF00
C000
C000
C000
C000
C000
FFC0
FFC0
ENDCHAR
STARTCHAR 0046
ENCODING 70
SWIDTH 495 0
DWIDTH 11 0
BBX 9 16 2 0
BITMAP
FF80
FF80
C000
C000
C000
C000
C000
FF00
FF00
C000
C000
C000
C000
C000
C000
C000
ENDCHAR
STARTCHAR 0047
ENCODING 71
SWIDTH 720 0
DWIDTH 16 0
BBX 14 16 1 0
BITMAP
0FC0
3FF0
7038
6018
E01C
C000
C000
C000
C07C
C07C
C00C
C00C
6018
7038
3FF0
0FC0
ENDCHAR
STARTCHAR 0048
ENCODING 72
SWIDTH 675 0
DWIDTH 15 0
BBX 12 16 2 0
BITMAP
C030
C030
C030
C030
C030
C030
C030
FFF0
FFF0
C030
C030
C030
C030
C030
C030
C030
ENDCHAR
STARTCHAR 0049
ENCODING 73
SWIDTH 270 0
DWIDTH 6 0
BBX 2 16 2 0
BITMAP
C0
C0
C0
C0
C0
C0
C0
C0
C0
C0
C0
C0
C0
C0
C0
C0
ENDCHAR
STARTCHAR 004A
ENCODING 74
SWIDTH 495 0
DWIDTH 11 0
BBX 9 16 0 0
BITMAP
0180
0180
0180
0180
0180
0180
0180
0180
0180
0180
0180
0180
4180
E300
7F00
3E00
ENDCHAR
STARTCHAR 004B
ENCODING 75
SWIDTH 630 0
DWIDTH 14 0
BBX 11 16 2 0
BITMAP
C0E0
C1C0
C380
C700
CE00
DC00
F800
F000
F000
D800
CC00
C600
C300
C180
C0C0
C060
ENDCHAR
STARTCHAR 004C
ENCODING 76
SWIDTH 540 0
DWIDTH 12 0
BBX 9 16 2 0
BITMAP
C000
C000
C000
C000
C000
C000
C000
C000
C000
C000
C000
C000
C000
C000
FF80
FF80
ENDCHAR
STARTCHAR 004D
ENCODING 77
SWIDTH 855 0
DWIDTH 19 0
BBX 15 16 2 0
BITMAP
C006
C006
E00E
E00E
E01E
B01E
B036
9836
9866
8C66
8CC6
86C6
86C6
8386
8386
8106
ENDCHAR
STARTCHAR 004E
ENCODING 78
SWIDTH 675 0
DWIDTH 15 0
BBX 12 16 2 0
BITMAP
C030
E030
E030
F030
F830
D830
CC30
CE30
C630
C330
C3B0
C1B0
C0F0
C0F0
C070
C030
ENDCHAR
STARTCHAR 004F
ENCODING 79
SWIDTH 720 0
DWIDTH 16 0
BBX 15 16 1 0
BITMAP
0FC0
3FF0
7038
601C
E00C
C00C
C00C
C00E
C00E
C00C
C00C
C00C
601C
7038
3FF0
0FC0
ENDCHAR
STARTCHAR 0050
ENCODING 80
SWIDTH 630 0
DWIDTH 14 0
BBX 11 16 2 0
BITMAP
FF00
FFC0
C0C0
C060
C060
C060
C060
C0C0
FFC0
FF00
C000
C000
C000
C000
C000
C000
ENDCHAR
STARTCHAR 0051
ENCODING 81
SWIDTH 720 0
DWIDTH 16 0
BBX 15 16 1 0
BITMAP
0FC0
3FF0
7038
601C
E00C
C00C
C00C
C00E
C00E
C00C
C00C
C06C
607C
7038
3FFC
0FC4
ENDCHAR
STARTCHAR 0052
ENCODING 82
SWIDTH 630 0
DWIDTH 14 0
BBX 11 16 2 0
BITMAP
FF00
FFC0
C0C0
C060
C060
C060
C060
C0C0
FFC0
FF00
C380
C180
C1C0
C0C0
C0E0
C060
ENDCHAR
STARTCHAR 0053
ENCODING 83
SWIDTH 630 0
DWIDTH 14 0
BBX 12 16 1 0
BITMAP
1F80
3FC0
70E0
E070
C030
6000
7800
3F80
07E0
0070
0030
C030
E030
7070
3FE0
1F80
ENDCHAR
STARTCHAR 0054
ENCODING 84
SWIDTH 585 0
DWIDTH 13 0
BBX 13 16 0 0
BITMAP
FFF8
FFF8
0300
0300
0300
0300
0300
0300
0300
0300
0300
0300
0300
0300
0300
0300
ENDCHAR
STARTCHAR 0055
ENCODING 85
SWIDTH 720 0
DWIDTH 16 0
BBX 12 16 2 0
BITMAP
C030
C030
C030
C030
C030
C030
C030
C030
C030
C030
C030
C030
C070
70E0
7FC0
1F80
ENDCHAR
STARTCHAR 0056
ENCODING 86
SWIDTH 630 0
DWIDTH 14 0
BBX 13 16 0 0
BITMAP
C018
6018
6018
6030
3030
3030
3060
1860
1860
18C0
0CC0
0CC0
0D80
0780
0780
0700
ENDCHAR
STARTCHAR 0057
ENCODING 87
SWIDTH 945 0
DWIDTH 21 0
BBX 21 16 0 0
BITMAP
E07018
607030
607030
607830
30D860
30D860
30D860
318C60
198CC0
198CC0
1986C0
0F0780
0F0780
0F0780
060380
060300
ENDCHAR
STARTCHAR 0058
ENCODING 88
SWIDTH 630 0
DWIDTH 14 0
BBX 12 16 1 0
BITMAP
C030
E060
60E0
30C0
3980
1B80
0F00
0E00
0F00
0F00
1980
39C0
30C0
6060
E070
C030
ENDCHAR
STARTCHAR 0059
ENCODING 89
SWIDTH 585 0
DWIDTH 13 0
BBX 12 16 0 0
BITMAP
E030
6030
7060
30E0
18C0
19C0
0D80
0F00
0700
0600
0600
0600
0600
0600
0600
0600
ENDCHAR
STARTCHAR 005A
ENCODING 90
SWIDTH 630 0
DWIDTH 14 0
BBX 12 16 1 0
BITMAP
FFF0
FFE0
00E0
00C0
0180
0380
0300
0700
0600
0C00
1C00
1800
3000
7000
7FF0
FFF0
ENDCHAR
STARTCHAR 005B
ENCODING 91
SWIDTH 405 0
DWIDTH 9 0
BBX 4 25 3 -5
BITMAP
F0
F0
C0
C0
C0
C0
C0
C0
C0
C0
C0
C0
C0
C0
C0
C0
C0
C0
C0
C0
C0
C0
C0
F0
F0
ENDCHAR
STARTCHAR 005C
ENCODING 92
SWIDTH 405 0
DWIDTH 9 0
BBX 6 16 1 0
BITMAP
C0
60
60
60
30
30
30
30
18
18
18
18
0C
0C
0C
0C
ENDCHAR
STARTCHAR 005D
ENCODING 93
SWIDTH 405 0
DWIDTH 9 0
BBX 4 25 2 -5
BITMAP
F0
F0
30
30
30
30
30
30
30
30
30
30
30
30
30
30
30
30
30
30
30
30
30
F0
F0
ENDCHAR
STARTCHAR 005E
ENCODING 94
SWIDTH 675 0
DWIDTH 15 0
BBX 10 6 3 11
BITMAP
0C00
1E00
3700
6380
C1C0
8080
ENDCHAR
STARTCHAR 005F
ENCODING 95
SWIDTH 675 0
DWIDTH 15 0
BBX 15 2 0 -3
BITMAP
FFFE
FFFE
ENDCHAR
STARTCHAR 0060
ENCODING 96
SWIDTH 495 0
DWIDTH 11 0
BBX 3 4 4 18
BITMAP
80
C0
40
60
ENDCHAR
STARTCHAR 0061
ENCODING 97
SWIDTH 585 0
DWIDTH 13 0
BBX 10 12 1 0
BITMAP
1F00
7F80
60C0
40C0
01C0
3FC0
78C0
C0C0
C0C0
C1C0
FFC0
3CC0
ENDCHAR
STARTCHAR 0062
ENCODING 98
SWIDTH 585 0
DWIDTH 13 0
BBX 10 16 2 0
BITMAP
C000
C000
C000
C000
DE00
FF80
E1C0
C0C0
80C0
80C0
80C0
80C0
C0C0
E1C0
FF80
9E00
ENDCHAR
STARTCHAR 0063
ENCODING 99
SWIDTH 540 0
DWIDTH 12 0
BBX 10 12 1 0
BITMAP
1F00
3FC0
60C0
E040
C000
C000
C000
C000
E040
60C0
3FC0
1F00
ENDCHAR
STARTCHAR 0064
ENCODING 100
SWIDTH 585 0
DWIDTH 13 0
BBX 11 16 1 0
BITMAP
0060
0060
0060
0060
1F60
3FE0
60E0
E0E0
C060
C060
C060
C060
E0E0
60E0
3FE0
1F60
ENDCHAR
STARTCHAR 0065
ENCODING 101
SWIDTH 585 0
DWIDTH 13 0
BBX 11 12 1 0
BITMAP
1F00
3FC0
60C0
C060
C060
FFE0
FFE0
C000
E040
60E0
3FC0
1F00
ENDCHAR
STARTCHAR 0066
ENCODING 102
SWIDTH 360 0
DWIDTH 8 0
BBX 7 16 1 0
BITMAP
1E
3E
30
30
FE
FE
30
30
30
30
30
30
30
30
30
30
ENDCHAR
STARTCHAR 0067
ENCODING 103
SWIDTH 585 0
DWIDTH 13 0
BBX 11 17 1 -5
BITMAP
1F60
3FE0
60E0
E0E0
C060
C060
C060
C060
E0E0
60E0
3FE0
1F60
0060
00E0
60C0
7FC0
1F00
ENDCHAR
STARTCHAR 0068
ENCODING 104
SWIDTH 585 0
DWIDTH 13 0
BBX 10 16 2 0
BITMAP
8000
8000
8000
8000
9F00
BF80
E180
C0C0
C0C0
C0C0
C0C0
C0C0
C0C0
C0C0
C0C0
C0C0
ENDCHAR
STARTCHAR 0069
ENCODING 105
SWIDTH 270 0
DWIDTH 6 0
BBX 2 16 2 0
BITMAP
C0
C0
00
00
C0
C0
C0
C0
C0
C0
C0
C0
C0
C0
C0
C0
ENDCHAR
STARTCHAR 006A
ENCODING 106
SWIDTH 270 0
DWIDTH 6 0
BBX 4 21 0 -5
BITMAP
30
30
00
00
30
30
30
30
30
30
30
30
30
30
30
30
30
30
30
F0
E0
ENDCHAR
STARTCHAR 006B
ENCODING 107
SWIDTH 495 0
DWIDTH 11 0
BBX 9 16 2 0
BITMAP
C000
C000
C000
C000
C380
C700
CE00
CC00
D800
F000
F000
D800
CC00
C600
C300
C180
ENDCHAR
STARTCHAR 006C
ENCODING 108
SWIDTH 270 0
DWIDTH 6 0
BBX 2 16 2 0
BITMAP
C0
C0
C0
C0
C0
C0
C0
C0
C0
C0
C0
C0
C0
C0
C0
C0
ENDCHAR
STARTCHAR 006D
ENCODING 109
SWIDTH 855 0
DWIDTH 19 0
BBX 16 12 2 0
BITMAP
9E3C
FF7E
C387
C183
C183
C183
C183
C183
C183
C183
C183
C183
ENDCHAR
STARTCHAR 006E
ENCODING 110
SWIDTH 585 0
DWIDTH 13 0
BBX 10 12 2 0
BITMAP
9F00
BF80
E180
C0C0
C0C0
C0C0
C0C0
C0C0
C0C0
C0C0
C0C0
C0C0
ENDCHAR
STARTCHAR 006F
ENCODING 111
SWIDTH 585 0
DWIDTH 13 0
BBX 11 12 1 0
BITMAP
1F00
3FC0
60C0
E060
C060
C060
C060
C060
E060
60E0
3FC0
1F00
ENDCHAR
STARTCHAR 0070
ENCODING 112
SWIDTH 585 0
DWIDTH 13 0
BBX 10 17 2 -5
BITMAP
9E00
FF80
E1C0
C0C0
80C0
80C0
80C0
80C0
C0C0
E1C0
FF80
DE00
C000
C000
C000
C000
C000
ENDCHAR
STARTCHAR 0071
ENCODING 113
SWIDTH 585 0
DWIDTH 13 0
BBX 11 17 1 -5
BITMAP
1F60
3FE0
60E0
E0E0
C060
C060
C060
C060
E0E0
60E0
3FE0
1F60
0060
0060
0060
0060
0060
ENDCHAR
STARTCHAR 0072
ENCODING 114
SWIDTH 360 0
DWIDTH 8 0
BBX 6 12 2 0
BITMAP
9C
BC
E0
C0
C0
C0
C0
C0
C0
C0
C0
C0
ENDCHAR
STARTCHAR 0073
ENCODING 115
SWIDTH 540 0
DWIDTH 12 0
BBX 10 12 1 0
BITMAP
3E00
7F80
E1C0
C080
E000
3E00
0F80
01C0
C0C0
E1C0
7F80
3F00
ENDCHAR
STARTCHAR 0074
ENCODING 116
SWIDTH 405 0
DWIDTH 9 0
BBX 8 15 0 0
BITMAP
18
18
18
FF
FF
18
18
18
18
18
18
18
18
1F
0F
ENDCHAR
STARTCHAR 0075
ENCODING 117
SWIDTH 585 0
DWIDTH 13 0
BBX 11 12 1 0
BITMAP
C060
C060
C060
C060
C060
C060
C060
C060
60E0
70E0
3FE0
1E60
ENDCHAR
STARTCHAR 0076
ENCODING 118
SWIDTH 540 0
DWIDTH 12 0
BBX 10 12 1 0
BITMAP
C0C0
C0C0
C180
6180
6180
6300
3300
3600
1600
1E00
1C00
0C00
ENDCHAR
STARTCHAR 0077
ENCODING 119
SWIDTH 765 0
DWIDTH 17 0
BBX 16 12 1 0
BITMAP
C183
C386
C386
42C6
66C4
66CC
646C
3C6C
3C78
3C38
1838
1830
ENDCHAR
STARTCHAR 0078
ENCODING 120
SWIDTH 540 0
DWIDTH 12 0
BBX 10 12 1 0
BITMAP
C0C0
E180
7380
3300
1E00
1C00
1E00
1E00
3300
6380
E1C0
C0C0
ENDCHAR
STARTCHAR 0079
ENCODING 121
SWIDTH 540 0
DWIDTH 12 0
BBX 10 17 1 -5
BITMAP
C0C0
C0C0
C0C0
6180
6180
3180
3300
3300
1E00
1E00
0E00
0C00
0C00
0C00
1800
1800
1000
ENDCHAR
STARTCHAR 007A
ENCODING 122
SWIDTH 540 0
DWIDTH 12 0
BBX 10 12 1 0
BITMAP
FFC0
FF80
0300
0700
0600
0C00
1800
1800
3000
6000
FFC0
FFC0
ENDCHAR
STARTCHAR 007B
ENCODING 123
SWIDTH 450 0
DWIDTH 10 0
BBX 6 25 3 -5
BITMAP
1C
3C
60
60
60
60
60
60
60
60
60
60
C0
60
60
60
60
60
60
60
60
60
60
3C
1C
ENDCHAR
STARTCHAR 007C
ENCODING 124
SWIDTH 270 0
DWIDTH 6 0
BBX 2 16 2 0
BITMAP
C0
C0
C0
C0
C0
C0
C0
C0
C0
C0
C0
C0
C0
C0
C0
C0
ENDCHAR
STARTCHAR 007D
ENCODING 125
SWIDTH 450 0
DWIDTH 10 0
BBX 5 25 1 -5
BITMAP
E0
F0
30
30
30
30
30
30
30
30
30
18
18
18
30
30
30
30
30
30
30
30
30
F0
E0
ENDCHAR
STARTCHAR 007E
ENCODING 126
SWIDTH 675 0
DWIDTH 15 0
BBX 10 4 3 5
BITMAP
F080
FDC0
DF80
8780
ENDCHAR
STARTCHAR 00A0
ENCODING 160
SWIDTH 180 0
DWIDTH 4 0
BBX 0 0 0 0
BITMAP
ENDCHAR
STARTCHAR 00A1
ENCODING 161
SWIDTH 315 0
DWIDTH 7 0
BBX 2 16 3 -4
BITMAP
C0
C0
00
00
C0
C0
C0
C0
C0
C0
C0
C0
C0
C0
C0
C0
ENDCHAR
STARTCHAR 00A2
ENCODING 162
SWIDTH 540 0
DWIDTH 12 0
BBX 11 17 1 -1
BITMAP
0600
0600
1F00
3FC0
70C0
E060
C000
C000
C000
C000
C000
60E0
71C0
3F80
0E00
0600
0600
ENDCHAR
STARTCHAR 00A3
ENCODING 163
SWIDTH 585 0
DWIDTH 13 0
BBX 11 16 1 0
BITMAP
0F00
1FC0
18C0
3060
3000
3000
3000
FF00
FF00
3000
3000
3000
3000
3000
FFC0
FFC0
ENDCHAR
STARTCHAR 00A4
ENCODING 164
SWIDTH 630 0
DWIDTH 14 0
BBX 12 12 1 2
BITMAP
C730
FFF0
70E0
6060
4030
C030
C030
4030
6060
70E0
FFF0
C730
ENDCHAR
STARTCHAR 00A5
ENCODING 165
SWIDTH 585 0
DWIDTH 13 0
BBX 12 16 0 0
BITMAP
E030
6030
7060
30E0
18C0
1DC0
0D80
0F00
3FE0
3FE0
0600
0600
3FE0
3FE0
0600
0600
ENDCHAR
STARTCHAR 00A6
ENCODING 166
SWIDTH 270 0
DWIDTH 6 0
BBX 2 20 2 -4
BITMAP
C0
C0
C0
C0
C0
C0
C0
C0
C0
00
00
C0
C0
C0
C0
C0
C0
C0
C0
C0
ENDCHAR
STARTCHAR 00A7
ENCODING 167
SWIDTH 540 0
DWIDTH 12 0
BBX 10 18 1 -3
BITMAP
1C00
7F00
6380
C180
E000
7800
3F00
63C0
C0C0
C0C0
F1C0
3F80
0780
01C0
C0C0
6180
7F80
1F00
ENDCHAR
STARTCHAR 00A8
ENCODING 168
SWIDTH 540 0
DWIDTH 12 0
BBX 6 2 3 18
BITMAP
CC
CC
ENDCHAR
STARTCHAR 00A9
ENCODING 169
SWIDTH 810 0
DWIDTH 18 0
BBX 17 17 1 -1
BITMAP
07E000
1FF800
3C1C00
700E00
63C700
C7F300
CC3180
CC0180
CC0180
CC0180
CC3180
C7F300
63C700
700E00
3C1C00
0FF800
03E000
ENDCHAR
STARTCHAR 00AA
ENCODING 170
SWIDTH 315 0
DWIDTH 7 0
BBX 5 6 1 6
BITMAP
70
C8
38
C8
88
F8
ENDCHAR
STARTCHAR 00AB
ENCODING 171
SWIDTH 540 0
DWIDTH 12 0
BBX 9 10 2 1
BITMAP
1100
3300
2300
6600
CC00
CC00
6600
3300
1180
1000
ENDCHAR
STARTCHAR 00AC
ENCODING 172
SWIDTH 585 0
DWIDTH 13 0
BBX 11 5 1 4
BITMAP
FFE0
FFE0
0060
0060
0060
ENDCHAR
STARTCHAR 00AD
ENCODING 173
SWIDTH 405 0
DWIDTH 9 0
BBX 7 2 1 6
BITMAP
FE
FE
ENDCHAR
STARTCHAR 00AE
ENCODING 174
SWIDTH 630 0
DWIDTH 14 0
BBX 11 11 2 6
BITMAP
3F00
6180
C0C0
9E40
9240
9E60
9240
D2C0
40C0
7380
1E00
ENDCHAR
STARTCHAR 00AF
ENCODING 175
SWIDTH 495 0
DWIDTH 11 0
BBX 5 2 3 18
BITMAP
F8
F8
ENDCHAR
STARTCHAR 00B0
ENCODING 176
SWIDTH 450 0
DWIDTH 10 0
BBX 8 8 1 8
BITMAP
3C
7E
C6
83
C3
C6
7E
38
ENDCHAR
STARTCHAR 00B1
ENCODING 177
SWIDTH 585 0
DWIDTH 13 0
BBX 11 11 1 1
BITMAP
0400
0400
0400
FFE0
FFE0
0400
0400
0000
0000
FFE0
FFE0
ENDCHAR
STARTCHAR 00B2
ENCODING 178
SWIDTH 405 0
DWIDTH 9 0
BBX 7 10 1 6
BITMAP
38
6C
C6
06
06
0C
18
30
C0
FE
ENDCHAR
STARTCHAR 00B3
ENCODING 179
SWIDTH 405 0
DWIDTH 9 0
BBX 6 10 1 6
BITMAP
FC
0C
18
30
38
0C
04
04
CC
78
ENDCHAR
STARTCHAR 00B4
ENCODING 180
SWIDTH 495 0
DWIDTH 11 0
BBX 2 4 5 18
BITMAP
40
C0
C0
80
ENDCHAR
STARTCHAR 00B5
ENCODING 181
SWIDTH 630 0
DWIDTH 14 0
BBX 10 17 2 -5
BITMAP
C0C0
C0C0
C0C0
C0C0
C0C0
C0C0
C0C0
C0C0
C0C0
E1C0
FFC0
BEC0
8000
8000
8000
8000
8000
ENDCHAR
STARTCHAR 00B6
ENCODING 182
SWIDTH 675 0
DWIDTH 15 0
BBX 12 19 1 -3
BITMAP
1FB0
3FB0
7FB0
7FB0
FFB0
FFB0
7FB0
7FB0
3FB0
1FB0
01B0
01B0
01B0
01B0
01B0
01B0
01B0
01B0
01B0
ENDCHAR
STARTCHAR 00B7
ENCODING 183
SWIDTH 225 0
DWIDTH 5 0
BBX 3 3 1 5
BITMAP
60
E0
40
ENDCHAR
STARTCHAR 00B8
ENCODING 184
SWIDTH 405 0
DWIDTH 9 0
BBX 3 5 3 -5
BITMAP
40
40
60
20
E0
ENDCHAR
STARTCHAR 00B9
ENCODING 185
SWIDTH 315 0
DWIDTH 7 0
BBX 4 10 1 6
BITMAP
70
F0
B0
30
30
30
30
30
30
30
ENDCHAR
STARTCHAR 00BA
ENCODING 186
SWIDTH 360 0
DWIDTH 8 0
BBX 6 6 1 6
BITMAP
78
C8
8C
8C
CC
78
ENDCHAR
STARTCHAR 00BB
ENCODING 187
SWIDTH 540 0
DWIDTH 12 0
BBX 8 10 2 1
BITMAP
88
CC
66
22
33
33
66
44
CC
88
ENDCHAR
STARTCHAR 00BC
ENCODING 188
SWIDTH 990 0
DWIDTH 22 0
BBX 18 16 1 0
BITMAP
700200
F00600
B00C00
301800
301000
303000
306100
30C300
318200
318600
030480
060C80
0C0880
0C1FC0
180080
100080
ENDCHAR
STARTCHAR 00BD
ENCODING 189
SWIDTH 945 0
DWIDTH 21 0
BBX 19 16 1 0
BITMAP
700200
F00600
B00C00
301800
301000
303000
3063C0
30C660
318420
318020
030060
0600C0
0C0180
0C0300
180600
100FE0
ENDCHAR
STARTCHAR 00BE
ENCODING 190
SWIDTH 990 0
DWIDTH 22 0
BBX 20 16 1 0
BITMAP
FC0100
0C0300
180600
300600
380C00
0C1800
0430C0
043180
CC6180
78C100
018360
018260
030660
0607F0
0C0060
040060
ENDCHAR
STARTCHAR 00BF
ENCODING 191
SWIDTH 540 0
DWIDTH 12 0
BBX 10 16 1 -4
BITMAP
0C00
0C00
0000
0000
0C00
0C00
0C00
1800
3000
6000
C000
C000
C0C0
E180
7F80
3E00
ENDCHAR
STARTCHAR 00C0
ENCODING 192
SWIDTH 630 0
DWIDTH 14 0
BBX 13 21 1 0
BITMAP
0C00
0400
0600
0000
0000
0700
0F00
0F00
0D80
1980
1980
18C0
30C0
30C0
3060
7FE0
7FE0
6030
C030
C030
C018
ENDCHAR
STARTCHAR 00C1
ENCODING 193
SWIDTH 630 0
DWIDTH 14 0
BBX 13 21 1 0
BITMAP
0100
0300
0200
0000
0000
0700
0F00
0F00
0D80
1980
1980
18C0
30C0
30C0
3060
7FE0
7FE0
6030
C030
C030
C018
ENDCHAR
STARTCHAR 00C2
ENCODING 194
SWIDTH 630 0
DWIDTH 14 0
BBX 13 21 1 0
BITMAP
0600
0F00
1980
0000
0000
0700
0F00
0F00
0D80
1980
1980
18C0
30C0
30C0
3060
7FE0
7FE0
6030
C030
C030
C018
ENDCHAR
STARTCHAR 00C3
ENCODING 195
SWIDTH 630 0
DWIDTH 14 0
BBX 13 22 1 0
BITMAP
0800
1EC0
13C0
0000
0000
0000
0700
0F00
0F00
0D80
1980
1980
18C0
30C0
30C0
3060
7FE0
7FE0
6030
C030
C030
C018
ENDCHAR
STARTCHAR 00C4
ENCODING 196
SWIDTH 630 0
DWIDTH 14 0
BBX 13 20 1 0
BITMAP
1980
1980
0000
0000
0700
0F00
0F00
0D80
1980
1980
18C0
30C0
30C0
3060
7FE0
7FE0
6030
C030
C030
C018
ENDCHAR
STARTCHAR 00C5
ENCODING 197
SWIDTH 630 0
DWIDTH 14 0
BBX 13 22 1 0
BITMAP
0F00
0980
0980
0D80
0700
0000
0700
0F00
0F00
0D80
1980
1980
18C0
30C0
30C0
3060
7FE0
7FE0
6030
C030
C030
C018
ENDCHAR
STARTCHAR 00C6
ENCODING 198
SWIDTH 945 0
DWIDTH 21 0
BBX 18 16 1 0
BITMAP
07FFC0
0FFFC0
0CC000
0CC000
18C000
18C000
18C000
30FF80
30FF80
30C000
7FC000
7FC000
60C000
C0C000
C0FFC0
C0FFC0
ENDCHAR
STARTCHAR 00C7
ENCODING 199
SWIDTH 720 0
DWIDTH 16 0
BBX 14 21 1 -5
BITMAP
0FC0
3FF0
7038
601C
E00C
C000
C000
C000
C000
C000
C000
C00C
601C
7038
3FF0
0FC0
0100
0380
0080
0180
0300
ENDCHAR
STARTCHAR 00C8
ENCODING 200
SWIDTH 585 0
DWIDTH 13 0
BBX 10 21 2 0
BITMAP
1800
1800
0800
0000
0000
FFC0
FFC0
C000
C000
C000
C000
C000
FF00
FF00
C000
C000
C000
C000
C000
FFC0
FFC0
ENDCHAR
STARTCHAR 00C9
ENCODING 201
SWIDTH 585 0
DWIDTH 13 0
BBX 10 21 2 0
BITMAP
0600
0400
0C00
0000
0000
FFC0
FFC0
C000
C000
C000
C000
C000
FF00
FF00
C000
C000
C000
C000
C000
FFC0
FFC0
ENDCHAR
STARTCHAR 00CA
ENCODING 202
SWIDTH 585 0
DWIDTH 13 0
BBX 10 21 2 0
BITMAP
1C00
3600
6200
0100
0000
FFC0
FFC0
C000
C000
C000
C000
C000
FF00
FF00
C000
C000
C000
C000
C000
FFC0
FFC0
ENDCHAR
STARTCHAR 00CB
ENCODING 203
SWIDTH 585 0
DWIDTH 13 0
BBX 10 20 2 0
BITMAP
6300
6300
0000
0000
FFC0
FFC0
C000
C000
C000
C000
C000
FF00
FF00
C000
C000
C000
C000
C000
FFC0
FFC0
ENDCHAR
STARTCHAR 00CC
ENCODING 204
SWIDTH 270 0
DWIDTH 6 0
BBX 3 22 1 0
BITMAP
80
C0
C0
40
00
00
60
60
60
60
60
60
60
60
60
60
60
60
60
60
60
60
ENDCHAR
STARTCHAR 00CD
ENCODING 205
SWIDTH 270 0
DWIDTH 6 0
BBX 3 22 2 0
BITMAP
60
60
40
C0
00
00
C0
C0
C0
C0
C0
C0
C0
C0
C0
C0
C0
C0
C0
C0
C0
C0
ENDCHAR
STARTCHAR 00CE
ENCODING 206
SWIDTH 270 0
DWIDTH 6 0
BBX 6 21 0 0
BITMAP
70
78
CC
00
00
30
30
30
30
30
30
30
30
30
30
30
30
30
30
30
30
ENDCHAR
STARTCHAR 00CF
ENCODING 207
SWIDTH 270 0
DWIDTH 6 0
BBX 6 20 0 0
BITMAP
CC
CC
00
00
30
30
30
30
30
30
30
30
30
30
30
30
30
30
30
30
ENDCHAR
STARTCHAR 00D0
ENCODING 208
SWIDTH 675 0
DWIDTH 15 0
BBX 14 16 0 0
BITMAP
7FC0
7FF0
7038
7018
701C
700C
700C
FE0C
FE0C
700C
700C
7018
7018
7030
7FF0
7FC0
ENDCHAR
STARTCHAR 00D1
ENCODING 209
SWIDTH 675 0
DWIDTH 15 0
BBX 12 21 2 0
BITMAP
0080
1EC0
3380
0000
0000
C030
E030
E030
F030
F830
D830
CC30
CE30
C630
C330
C3B0
C1B0
C0F0
C0F0
C070
C030
ENDCHAR
STARTCHAR 00D2
ENCODING 210
SWIDTH 720 0
DWIDTH 16 0
BBX 15 21 1 0
BITMAP
0600
0600
0200
0300
0000
0FC0
3FF0
7038
601C
E00C
C00C
C00C
C00E
C00E
C00C
C00C
C00C
601C
7038
3FF0
0FC0
ENDCHAR
STARTCHAR 00D3
ENCODING 211
SWIDTH 720 0
DWIDTH 16 0
BBX 15 21 1 0
BITMAP
0080
0180
0100
0300
0000
0FC0
3FF0
7038
601C
E00C
C00C
C00C
C00E
C00E
C00C
C00C
C00C
601C
7038
3FF0
0FC0
ENDCHAR
STARTCHAR 00D4
ENCODING 212
SWIDTH 720 0
DWIDTH 16 0
BBX 15 21 1 0
BITMAP
0300
0780
0CC0
0000
0000
0FC0
3FF0
7038
601C
E00C
C00C
C00C
C00E
C00E
C00C
C00C
C00C
601C
7038
3FF0
0FC0
ENDCHAR
STARTCHAR 00D5
ENCODING 213
SWIDTH 720 0
DWIDTH 16 0
BBX 15 21 1 0
BITMAP
0400
0F60
09E0
0000
0000
0FC0
3FF0
7038
601C
E00C
C00C
C00C
C00E
C00E
C00C
C00C
C00C
601C
7038
3FF0
0FC0
ENDCHAR
STARTCHAR 00D6
ENCODING 214
SWIDTH 720 0
DWIDTH 16 0
BBX 15 20 1 0
BITMAP
0CC0
0CC0
0000
0000
0FC0
3FF0
7038
601C
E00C
C00C
C00C
C00E
C00E
C00C
C00C
C00C
601C
7038
3FF0
0FC0
ENDCHAR
STARTCHAR 00D7
ENCODING 215
SWIDTH 495 0
DWIDTH 11 0
BBX 7 8 2 4
BITMAP
82
C6
6C
38
38
6C
C6
82
ENDCHAR
STARTCHAR 00D8
ENCODING 216
SWIDTH 720 0
DWIDTH 16 0
BBX 15 16 1 0
BITMAP
0FC4
3FFE
703C
603C
E07C
C0EC
C1CE
C38E
C30E
C60C
CC0C
D80C
701C
7038
FFF0
8FC0
ENDCHAR
STARTCHAR 00D9
ENCODING 217
SWIDTH 720 0
DWIDTH 16 0
BBX 12 21 2 0
BITMAP
0C00
0400
0600
0000
0000
C030
C030
C030
C030
C030
C030
C030
C030
C030
C030
C030
C030
C070
70E0
7FC0
1F80
ENDCHAR
STARTCHAR 00DA
ENCODING 218
SWIDTH 720 0
DWIDTH 16 0
BBX 12 21 2 0
BITMAP
0300
0200
0600
0000
0000
C030
C030
C030
C030
C030
C030
C030
C030
C030
C030
C030
C030
C070
70E0
7FC0
1F80
ENDCHAR
STARTCHAR 00DB
ENCODING 219
SWIDTH 720 0
DWIDTH 16 0
BBX 12 21 2 0
BITMAP
0600
0F00
1980
0000
0000
C030
C030
C030
C030
C030
C030
C030
C030
C030
C030
C030
C030
C070
70E0
7FC0
1F80
ENDCHAR
STARTCHAR 00DC
ENCODING 220
SWIDTH 720 0
DWIDTH 16 0
BBX 12 20 2 0
BITMAP
1980
1980
0000
0000
C030
C030
C030
C030
C030
C030
C030
C030
C030
C030
C030
C030
C070
70E0
7FC0
1F80
ENDCHAR
STARTCHAR 00DD
ENCODING 221
SWIDTH 585 0
DWIDTH 13 0
BBX 12 21 0 0
BITMAP
0300
0300
0200
0000
0000
E030
6030
7060
30E0
18C0
19C0
0D80
0F00
0700
0600
0600
0600
0600
0600
0600
0600
ENDCHAR
STARTCHAR 00DE
ENCODING 222
SWIDTH 585 0
DWIDTH 13 0
BBX 11 16 2 0
BITMAP
C000
C000
C000
FF00
FF80
C1C0
C0E0
C060
C060
C0E0
C0C0
FF80
FF00
C000
C000
C000
ENDCHAR
STARTCHAR 00DF
ENCODING 223
SWIDTH 630 0
DWIDTH 14 0
BBX 10 16 2 0
BITMAP
3E00
7F00
C300
C180
C180
C180
C300
CF00
CF80
C1C0
C0C0
C0C0
C0C0
C1C0
DF80
DF00
ENDCHAR
STARTCHAR 00E0
ENCODING 224
SWIDTH 585 0
DWIDTH 13 0
BBX 10 17 1 0
BITMAP
1800
0800
0C00
0400
0000
1F00
7F80
60C0
40C0
01C0
3FC0
78C0
C0C0
C0C0
C1C0
FFC0
3CC0
ENDCHAR
STARTCHAR 00E1
ENCODING 225
SWIDTH 585 0
DWIDTH 13 0
BBX 10 17 1 0
BITMAP
0200
0600
0600
0400
0000
1F00
7F80
60C0
40C0
01C0
3FC0
78C0
C0C0
C0C0
C1C0
FFC0
3CC0
ENDCHAR
STARTCHAR 00E2
ENCODING 226
SWIDTH 585 0
DWIDTH 13 0
BBX 10 17 1 0
BITMAP
0E00
1B00
3300
0000
0000
1F00
7F80
60C0
40C0
01C0
3FC0
78C0
C0C0
C0C0
C1C0
FFC0
3CC0
ENDCHAR
STARTCHAR 00E3
ENCODING 227
SWIDTH 585 0
DWIDTH 13 0
BBX 10 16 1 1
BITMAP
3C80
2780
0100
0000
1F00
7F80
60C0
40C0
01C0
3FC0
78C0
C0C0
C0C0
C1C0
FFC0
3CC0
ENDCHAR
STARTCHAR 00E4
ENCODING 228
SWIDTH 585 0
DWIDTH 13 0
BBX 10 16 1 0
BITMAP
3180
3180
0000
0000
1F00
7F80
60C0
40C0
01C0
3FC0
78C0
C0C0
C0C0
C1C0
FFC0
3CC0
ENDCHAR
STARTCHAR 00E5
ENCODING 229
SWIDTH 585 0
DWIDTH 13 0
BBX 10 18 1 0
BITMAP
0E00
1B00
1100
1B00
0E00
0000
1F00
7F80
60C0
40C0
01C0
3FC0
78C0
C0C0
C0C0
C1C0
FFC0
3CC0
ENDCHAR
STARTCHAR 00E6
ENCODING 230
SWIDTH 945 0
DWIDTH 21 0
BBX 19 12 1 0
BITMAP
1F1F00
7FBF80
61F0C0
40E060
00C060
1FFFE0
7CFFE0
C0C000
C0E040
C1F0C0
FF3FC0
3E1F00
ENDCHAR
STARTCHAR 00E7
ENCODING 231
SWIDTH 540 0
DWIDTH 12 0
BBX 10 17 1 -5
BITMAP
1F00
3FC0
60C0
E040
C000
C000
C000
C000
E040
60C0
3FC0
1F00
0400
0E00
0200
0E00
0E00
ENDCHAR
STARTCHAR 00E8
ENCODING 232
SWIDTH 585 0
DWIDTH 13 0
BBX 11 17 1 0
BITMAP
0800
0C00
0400
0600
0000
1F00
3FC0
60C0
C060
C060
FFE0
FFE0
C000
E040
60E0
3FC0
1F00
ENDCHAR
STARTCHAR 00E9
ENCODING 233
SWIDTH 585 0
DWIDTH 13 0
BBX 11 17 1 0
BITMAP
0300
0300
0600
0600
0000
1F00
3FC0
60C0
C060
C060
FFE0
FFE0
C000
E040
60E0
3FC0
1F00
ENDCHAR
STARTCHAR 00EA
ENCODING 234
SWIDTH 585 0
DWIDTH 13 0
BBX 11 17 1 0
BITMAP
0E00
1B00
1980
0000
0000
1F00
3FC0
60C0
C060
C060
FFE0
FFE0
C000
E040
60E0
3FC0
1F00
ENDCHAR
STARTCHAR 00EB
ENCODING 235
SWIDTH 585 0
DWIDTH 13 0
BBX 11 16 1 0
BITMAP
3180
3180
0000
0000
1F00
3FC0
60C0
C060
C060
FFE0
FFE0
C000
E040
60E0
3FC0
1F00
ENDCHAR
STARTCHAR 00EC
ENCODING 236
SWIDTH 270 0
DWIDTH 6 0
BBX 3 17 1 0
BITMAP
80
C0
40
00
00
60
60
60
60
60
60
60
60
60
60
60
60
ENDCHAR
STARTCHAR 00ED
ENCODING 237
SWIDTH 270 0
DWIDTH 6 0
BBX 3 17 2 0
BITMAP
60
40
C0
00
00
C0
C0
C0
C0
C0
C0
C0
C0
C0
C0
C0
C0
ENDCHAR
STARTCHAR 00EE
ENCODING 238
SWIDTH 270 0
DWIDTH 6 0
BBX 6 17 0 0
BITMAP
30
78
CC
00
00
30
30
30
30
30
30
30
30
30
30
30
30
ENDCHAR
STARTCHAR 00EF
ENCODING 239
SWIDTH 270 0
DWIDTH 6 0
BBX 6 16 0 0
BITMAP
CC
CC
00
00
30
30
30
30
30
30
30
30
30
30
30
30
ENDCHAR
STARTCHAR 00F0
ENCODING 240
SWIDTH 585 0
DWIDTH 13 0
BBX 11 17 1 1
BITMAP
0F80
0F00
0780
06C0
00C0
0E60
3FE0
71E0
E0E0
C060
C060
C060
C060
C060
60C0
3FC0
1F00
ENDCHAR
STARTCHAR 00F1
ENCODING 241
SWIDTH 585 0
DWIDTH 13 0
BBX 10 16 2 1
BITMAP
7900
6F00
0200
0000
9F00
BF80
E180
C0C0
C0C0
C0C0
C0C0
C0C0
C0C0
C0C0
C0C0
C0C0
ENDCHAR
STARTCHAR 00F2
ENCODING 242
SWIDTH 585 0
DWIDTH 13 0
BBX 11 17 1 0
BITMAP
0800
0C00
0C00
0400
0000
1F00
3FC0
60C0
E060
C060
C060
C060
C060
E060
60E0
3FC0
1F00
ENDCHAR
STARTCHAR 00F3
ENCODING 243
SWIDTH 585 0
DWIDTH 13 0
BBX 11 17 1 0
BITMAP
0300
0200
0600
0400
0000
1F00
3FC0
60C0
E060
C060
C060
C060
C060
E060
60E0
3FC0
1F00
ENDCHAR
STARTCHAR 00F4
ENCODING 244
SWIDTH 585 0
DWIDTH 13 0
BBX 11 17 1 0
BITMAP
0E00
1B00
1980
0000
0000
1F00
3FC0
60C0
E060
C060
C060
C060
C060
E060
60E0
3FC0
1F00
ENDCHAR
STARTCHAR 00F5
ENCODING 245
SWIDTH 585 0
DWIDTH 13 0
BBX 11 16 1 1
BITMAP
3C80
3780
0100
0000
1F00
3FC0
60C0
E060
C060
C060
C060
C060
E060
60E0
3FC0
1F00
ENDCHAR
STARTCHAR 00F6
ENCODING 246
SWIDTH 585 0
DWIDTH 13 0
BBX 11 16 1 0
BITMAP
3180
3180
0000
0000
1F00
3FC0
60C0
E060
C060
C060
C060
C060
E060
60E0
3FC0
1F00
ENDCHAR
STARTCHAR 00F7
ENCODING 247
SWIDTH 540 0
DWIDTH 12 0
BBX 10 8 1 4
BITMAP
0C00
0C00
0000
FFC0
FFC0
0000
0C00
0C00
ENDCHAR
STARTCHAR 00F8
ENCODING 248
SWIDTH 585 0
DWIDTH 13 0
BBX 12 12 1 0
BITMAP
1F20
3FF0
60E0
E1E0
C360
C660
CC60
D860
F060
60C0
FFC0
9F00
ENDCHAR
STARTCHAR 00F9
ENCODING 249
SWIDTH 585 0
DWIDTH 13 0
BBX 11 17 1 0
BITMAP
0800
0C00
0400
0000
0000
C060
C060
C060
C060
C060
C060
C060
C060
60E0
70E0
3FE0
1E60
ENDCHAR
STARTCHAR 00FA
ENCODING 250
SWIDTH 585 0
DWIDTH 13 0
BBX 11 17 1 0
BITMAP
0200
0600
0600
0000
0000
C060
C060
C060
C060
C060
C060
C060
C060
60E0
70E0
3FE0
1E60
ENDCHAR
STARTCHAR 00FB
ENCODING 251
SWIDTH 585 0
DWIDTH 13 0
BBX 11 17 1 0
BITMAP
0E00
1B00
1180
2000
0000
C060
C060
C060
C060
C060
C060
C060
C060
60E0
70E0
3FE0
1E60
ENDCHAR
STARTCHAR 00FC
ENCODING 252
SWIDTH 585 0
DWIDTH 13 0
BBX 11 16 1 0
BITMAP
3180
3180
0000
0000
C060
C060
C060
C060
C060
C060
C060
C060
60E0
70E0
3FE0
1E60
ENDCHAR
STARTCHAR 00FD
ENCODING 253
SWIDTH 540 0
DWIDTH 12 0
BBX 10 22 1 -5
BITMAP
0600
0400
0C00
0000
0000
C0C0
C0C0
C0C0
6180
6180
3180
3300
3300
1E00
1E00
0E00
0C00
0C00
0C00
1800
1800
1000
ENDCHAR
STARTCHAR 00FE
ENCODING 254
SWIDTH 585 0
DWIDTH 13 0
BBX 10 21 2 -5
BITMAP
C000
C000
C000
C000
DE00
FF80
E1C0
C0C0
80C0
80C0
80C0
80C0
C0C0
E1C0
FF80
DE00
C000
C000
C000
C000
C000
ENDCHAR
STARTCHAR 00FF
ENCODING 255
SWIDTH 540 0
DWIDTH 12 0
BBX 10 21 1 -5
BITMAP
3300
3300
0000
0000
C0C0
C0C0
C0C0
6180
6180
3180
3300
3300
1E00
1E00
0E00
0C00
0C00
0C00
1800
1800
1000
ENDCHAR
ENDFONT
